<svg width="310" height="40" viewBox="0 0 310 40" fill="none" xmlns="http://www.w3.org/2000/svg">
<rect width="310" height="40" rx="4" fill="#56B280"/>
<path d="M45.6452 27V12.3226H49.9798C51.2769 12.3226 52.4261 12.6116 53.4274 13.1895C54.4355 13.7675 55.2151 14.5874 55.7661 15.6492C56.3172 16.711 56.5927 17.9274 56.5927 19.2984V20.0343C56.5927 21.4254 56.3138 22.6485 55.7561 23.7036C55.205 24.7587 54.4153 25.5719 53.3871 26.1431C52.3656 26.7144 51.1929 27 49.869 27H45.6452ZM48.1956 14.379V24.9637H49.8589C51.1962 24.9637 52.2211 24.547 52.9335 23.7137C53.6526 22.8737 54.0188 21.6707 54.0323 20.1048V19.2883C54.0323 17.6956 53.6862 16.4792 52.994 15.6391C52.3018 14.7991 51.297 14.379 49.9798 14.379H48.1956ZM61.502 27H59.0524V16.0927H61.502V27ZM58.9012 13.2601C58.9012 12.8837 59.0188 12.5712 59.254 12.3226C59.496 12.0739 59.8387 11.9496 60.2823 11.9496C60.7258 11.9496 61.0686 12.0739 61.3105 12.3226C61.5524 12.5712 61.6734 12.8837 61.6734 13.2601C61.6734 13.6297 61.5524 13.9388 61.3105 14.1875C61.0686 14.4294 60.7258 14.5504 60.2823 14.5504C59.8387 14.5504 59.496 14.4294 59.254 14.1875C59.0188 13.9388 58.9012 13.6297 58.9012 13.2601ZM70.2923 24.0363C70.2923 23.5995 70.1109 23.2668 69.748 23.0383C69.3918 22.8098 68.797 22.6082 67.9637 22.4335C67.1304 22.2587 66.4348 22.037 65.877 21.7681C64.6539 21.1767 64.0423 20.3199 64.0423 19.1976C64.0423 18.2567 64.4388 17.4704 65.2319 16.8387C66.0249 16.207 67.0329 15.8911 68.2561 15.8911C69.5598 15.8911 70.6116 16.2137 71.4113 16.8589C72.2177 17.504 72.621 18.3407 72.621 19.369H70.1714C70.1714 18.8985 69.9966 18.5087 69.6472 18.1996C69.2977 17.8837 68.834 17.7258 68.2561 17.7258C67.7184 17.7258 67.2782 17.8501 66.9355 18.0988C66.5995 18.3474 66.4315 18.6801 66.4315 19.0968C66.4315 19.4731 66.5894 19.7655 66.9052 19.9738C67.2211 20.1821 67.8595 20.3938 68.8206 20.6089C69.7816 20.8172 70.5343 21.0692 71.0786 21.3649C71.6297 21.6539 72.0363 22.0034 72.2984 22.4133C72.5672 22.8233 72.7016 23.3206 72.7016 23.9052C72.7016 24.8864 72.295 25.6828 71.4819 26.2944C70.6687 26.8992 69.6035 27.2016 68.2863 27.2016C67.3925 27.2016 66.5961 27.0403 65.8972 26.7177C65.1983 26.3952 64.6539 25.9516 64.2641 25.3871C63.8743 24.8226 63.6794 24.2144 63.6794 23.5625H66.0585C66.0921 24.1405 66.3105 24.5874 66.7137 24.9032C67.1169 25.2124 67.6512 25.3669 68.3165 25.3669C68.9617 25.3669 69.4523 25.246 69.7883 25.004C70.1243 24.7554 70.2923 24.4328 70.2923 24.0363ZM79.3246 25.246C79.9362 25.246 80.4435 25.0679 80.8468 24.7117C81.25 24.3555 81.4651 23.9153 81.4919 23.3911H83.8004C83.7735 24.0699 83.5618 24.705 83.1653 25.2964C82.7688 25.881 82.2312 26.3448 81.5524 26.6875C80.8737 27.0302 80.1411 27.2016 79.3548 27.2016C77.8293 27.2016 76.6196 26.7077 75.7258 25.7198C74.832 24.7319 74.3851 23.3676 74.3851 21.627V21.375C74.3851 19.7151 74.8286 18.3878 75.7157 17.3931C76.6028 16.3918 77.8125 15.8911 79.3448 15.8911C80.6418 15.8911 81.6969 16.2708 82.5101 17.0302C83.33 17.7829 83.7601 18.7742 83.8004 20.004H81.4919C81.4651 19.379 81.25 18.8649 80.8468 18.4617C80.4503 18.0585 79.9429 17.8569 79.3246 17.8569C78.5316 17.8569 77.92 18.1458 77.4899 18.7238C77.0598 19.295 76.8414 20.1653 76.8347 21.3347V21.7278C76.8347 22.9106 77.0464 23.7944 77.4698 24.379C77.8999 24.957 78.5181 25.246 79.3246 25.246ZM85.1915 21.4456C85.1915 20.377 85.4032 19.416 85.8266 18.5625C86.25 17.7023 86.8448 17.0437 87.6109 16.5867C88.377 16.123 89.2574 15.8911 90.252 15.8911C91.7238 15.8911 92.9167 16.3649 93.8306 17.3125C94.7513 18.2601 95.2487 19.5168 95.3226 21.0827L95.3327 21.6573C95.3327 22.7325 95.1243 23.6935 94.7077 24.5403C94.2977 25.3871 93.7063 26.0423 92.9335 26.506C92.1673 26.9698 91.2802 27.2016 90.2722 27.2016C88.7332 27.2016 87.5 26.6909 86.5726 25.6694C85.6519 24.6411 85.1915 23.2735 85.1915 21.5665V21.4456ZM87.6411 21.6573C87.6411 22.7796 87.873 23.6599 88.3367 24.2984C88.8004 24.9301 89.4456 25.246 90.2722 25.246C91.0988 25.246 91.7406 24.9234 92.1976 24.2782C92.6613 23.6331 92.8931 22.6888 92.8931 21.4456C92.8931 20.3434 92.6546 19.4698 92.1774 18.8246C91.707 18.1794 91.0652 17.8569 90.252 17.8569C89.4523 17.8569 88.8172 18.1761 88.3468 18.8145C87.8763 19.4462 87.6411 20.3938 87.6411 21.6573ZM101.089 23.8952L103.397 16.0927H105.927L102.147 27H100.02L96.2097 16.0927H98.75L101.089 23.8952ZM112.127 27.2016C110.575 27.2016 109.315 26.7144 108.347 25.7399C107.386 24.7587 106.905 23.455 106.905 21.8286V21.5262C106.905 20.4375 107.114 19.4664 107.53 18.6129C107.954 17.7527 108.545 17.084 109.304 16.6069C110.064 16.1297 110.911 15.8911 111.845 15.8911C113.33 15.8911 114.476 16.3649 115.282 17.3125C116.095 18.2601 116.502 19.6008 116.502 21.3347V22.3226H109.375C109.449 23.2231 109.748 23.9355 110.272 24.4597C110.803 24.9839 111.468 25.246 112.268 25.246C113.39 25.246 114.304 24.7923 115.01 23.8851L116.331 25.1452C115.894 25.797 115.309 26.3044 114.577 26.6673C113.851 27.0235 113.034 27.2016 112.127 27.2016ZM111.835 17.8569C111.163 17.8569 110.618 18.0921 110.202 18.5625C109.792 19.0329 109.53 19.6882 109.415 20.5282H114.083V20.3468C114.029 19.5269 113.81 18.9086 113.427 18.4919C113.044 18.0685 112.513 17.8569 111.835 17.8569ZM124.123 18.3306C123.8 18.2769 123.468 18.25 123.125 18.25C122.003 18.25 121.247 18.6801 120.857 19.5403V27H118.407V16.0927H120.746L120.806 17.3125C121.398 16.3649 122.218 15.8911 123.266 15.8911C123.616 15.8911 123.905 15.9382 124.133 16.0323L124.123 18.3306ZM129.667 23.4919L131.885 16.0927H134.496L130.161 28.6532C129.496 30.4879 128.367 31.4052 126.774 31.4052C126.418 31.4052 126.025 31.3448 125.595 31.2238V29.3286L126.058 29.3589C126.677 29.3589 127.14 29.2446 127.45 29.0161C127.765 28.7944 128.014 28.418 128.196 27.8871L128.548 26.9496L124.718 16.0927H127.359L129.667 23.4919ZM140.595 21.4456C140.595 20.377 140.806 19.416 141.23 18.5625C141.653 17.7023 142.248 17.0437 143.014 16.5867C143.78 16.123 144.661 15.8911 145.655 15.8911C147.127 15.8911 148.32 16.3649 149.234 17.3125C150.155 18.2601 150.652 19.5168 150.726 21.0827L150.736 21.6573C150.736 22.7325 150.528 23.6935 150.111 24.5403C149.701 25.3871 149.11 26.0423 148.337 26.506C147.571 26.9698 146.683 27.2016 145.675 27.2016C144.136 27.2016 142.903 26.6909 141.976 25.6694C141.055 24.6411 140.595 23.2735 140.595 21.5665V21.4456ZM143.044 21.6573C143.044 22.7796 143.276 23.6599 143.74 24.2984C144.204 24.9301 144.849 25.246 145.675 25.246C146.502 25.246 147.144 24.9234 147.601 24.2782C148.065 23.6331 148.296 22.6888 148.296 21.4456C148.296 20.3434 148.058 19.4698 147.581 18.8246C147.11 18.1794 146.468 17.8569 145.655 17.8569C144.856 17.8569 144.22 18.1761 143.75 18.8145C143.28 19.4462 143.044 20.3938 143.044 21.6573ZM159.415 25.9315C158.696 26.7782 157.675 27.2016 156.351 27.2016C155.168 27.2016 154.271 26.8555 153.659 26.1633C153.054 25.4711 152.752 24.4698 152.752 23.1593V16.0927H155.202V23.129C155.202 24.5134 155.776 25.2056 156.925 25.2056C158.115 25.2056 158.918 24.7789 159.335 23.9254V16.0927H161.784V27H159.476L159.415 25.9315ZM169.99 18.3306C169.667 18.2769 169.335 18.25 168.992 18.25C167.87 18.25 167.114 18.6801 166.724 19.5403V27H164.274V16.0927H166.613L166.673 17.3125C167.265 16.3649 168.085 15.8911 169.133 15.8911C169.483 15.8911 169.772 15.9382 170 16.0323L169.99 18.3306ZM181.159 25.246C181.771 25.246 182.278 25.0679 182.681 24.7117C183.085 24.3555 183.3 23.9153 183.327 23.3911H185.635C185.608 24.0699 185.397 24.705 185 25.2964C184.603 25.881 184.066 26.3448 183.387 26.6875C182.708 27.0302 181.976 27.2016 181.19 27.2016C179.664 27.2016 178.454 26.7077 177.56 25.7198C176.667 24.7319 176.22 23.3676 176.22 21.627V21.375C176.22 19.7151 176.663 18.3878 177.55 17.3931C178.437 16.3918 179.647 15.8911 181.179 15.8911C182.476 15.8911 183.532 16.2708 184.345 17.0302C185.165 17.7829 185.595 18.7742 185.635 20.004H183.327C183.3 19.379 183.085 18.8649 182.681 18.4617C182.285 18.0585 181.778 17.8569 181.159 17.8569C180.366 17.8569 179.755 18.1458 179.325 18.7238C178.894 19.295 178.676 20.1653 178.669 21.3347V21.7278C178.669 22.9106 178.881 23.7944 179.304 24.379C179.735 24.957 180.353 25.246 181.159 25.246ZM187.026 21.4456C187.026 20.377 187.238 19.416 187.661 18.5625C188.085 17.7023 188.679 17.0437 189.446 16.5867C190.212 16.123 191.092 15.8911 192.087 15.8911C193.558 15.8911 194.751 16.3649 195.665 17.3125C196.586 18.2601 197.083 19.5168 197.157 21.0827L197.167 21.6573C197.167 22.7325 196.959 23.6935 196.542 24.5403C196.132 25.3871 195.541 26.0423 194.768 26.506C194.002 26.9698 193.115 27.2016 192.107 27.2016C190.568 27.2016 189.335 26.6909 188.407 25.6694C187.487 24.6411 187.026 23.2735 187.026 21.5665V21.4456ZM189.476 21.6573C189.476 22.7796 189.708 23.6599 190.171 24.2984C190.635 24.9301 191.28 25.246 192.107 25.246C192.933 25.246 193.575 24.9234 194.032 24.2782C194.496 23.6331 194.728 22.6888 194.728 21.4456C194.728 20.3434 194.489 19.4698 194.012 18.8246C193.542 18.1794 192.9 17.8569 192.087 17.8569C191.287 17.8569 190.652 18.1761 190.181 18.8145C189.711 19.4462 189.476 20.3938 189.476 21.6573ZM201.845 27H199.395V11.5161H201.845V27ZM207.127 27H204.677V11.5161H207.127V27ZM214.607 27.2016C213.054 27.2016 211.794 26.7144 210.827 25.7399C209.866 24.7587 209.385 23.455 209.385 21.8286V21.5262C209.385 20.4375 209.593 19.4664 210.01 18.6129C210.433 17.7527 211.025 17.084 211.784 16.6069C212.544 16.1297 213.39 15.8911 214.325 15.8911C215.81 15.8911 216.956 16.3649 217.762 17.3125C218.575 18.2601 218.982 19.6008 218.982 21.3347V22.3226H211.855C211.929 23.2231 212.228 23.9355 212.752 24.4597C213.283 24.9839 213.948 25.246 214.748 25.246C215.87 25.246 216.784 24.7923 217.49 23.8851L218.81 25.1452C218.374 25.797 217.789 26.3044 217.056 26.6673C216.331 27.0235 215.514 27.2016 214.607 27.2016ZM214.315 17.8569C213.642 17.8569 213.098 18.0921 212.681 18.5625C212.272 19.0329 212.009 19.6882 211.895 20.5282H216.562V20.3468C216.509 19.5269 216.29 18.9086 215.907 18.4919C215.524 18.0685 214.993 17.8569 214.315 17.8569ZM225.373 25.246C225.985 25.246 226.492 25.0679 226.895 24.7117C227.298 24.3555 227.513 23.9153 227.54 23.3911H229.849C229.822 24.0699 229.61 24.705 229.214 25.2964C228.817 25.881 228.28 26.3448 227.601 26.6875C226.922 27.0302 226.19 27.2016 225.403 27.2016C223.878 27.2016 222.668 26.7077 221.774 25.7198C220.88 24.7319 220.433 23.3676 220.433 21.627V21.375C220.433 19.7151 220.877 18.3878 221.764 17.3931C222.651 16.3918 223.861 15.8911 225.393 15.8911C226.69 15.8911 227.745 16.2708 228.558 17.0302C229.378 17.7829 229.808 18.7742 229.849 20.004H227.54C227.513 19.379 227.298 18.8649 226.895 18.4617C226.499 18.0585 225.991 17.8569 225.373 17.8569C224.58 17.8569 223.968 18.1458 223.538 18.7238C223.108 19.295 222.89 20.1653 222.883 21.3347V21.7278C222.883 22.9106 223.095 23.7944 223.518 24.379C223.948 24.957 224.567 25.246 225.373 25.246ZM234.768 13.4415V16.0927H236.694V17.9073H234.768V23.996C234.768 24.4126 234.849 24.7151 235.01 24.9032C235.178 25.0847 235.474 25.1754 235.897 25.1754C236.179 25.1754 236.465 25.1418 236.754 25.0746V26.9698C236.196 27.1243 235.659 27.2016 235.141 27.2016C233.259 27.2016 232.319 26.1633 232.319 24.0867V17.9073H230.524V16.0927H232.319V13.4415H234.768ZM241.179 27H238.73V16.0927H241.179V27ZM238.579 13.2601C238.579 12.8837 238.696 12.5712 238.931 12.3226C239.173 12.0739 239.516 11.9496 239.96 11.9496C240.403 11.9496 240.746 12.0739 240.988 12.3226C241.23 12.5712 241.351 12.8837 241.351 13.2601C241.351 13.6297 241.23 13.9388 240.988 14.1875C240.746 14.4294 240.403 14.5504 239.96 14.5504C239.516 14.5504 239.173 14.4294 238.931 14.1875C238.696 13.9388 238.579 13.6297 238.579 13.2601ZM243.397 21.4456C243.397 20.377 243.609 19.416 244.032 18.5625C244.456 17.7023 245.05 17.0437 245.817 16.5867C246.583 16.123 247.463 15.8911 248.458 15.8911C249.929 15.8911 251.122 16.3649 252.036 17.3125C252.957 18.2601 253.454 19.5168 253.528 21.0827L253.538 21.6573C253.538 22.7325 253.33 23.6935 252.913 24.5403C252.503 25.3871 251.912 26.0423 251.139 26.506C250.373 26.9698 249.486 27.2016 248.478 27.2016C246.939 27.2016 245.706 26.6909 244.778 25.6694C243.858 24.6411 243.397 23.2735 243.397 21.5665V21.4456ZM245.847 21.6573C245.847 22.7796 246.079 23.6599 246.542 24.2984C247.006 24.9301 247.651 25.246 248.478 25.246C249.304 25.246 249.946 24.9234 250.403 24.2782C250.867 23.6331 251.099 22.6888 251.099 21.4456C251.099 20.3434 250.86 19.4698 250.383 18.8246C249.913 18.1794 249.271 17.8569 248.458 17.8569C247.658 17.8569 247.023 18.1761 246.552 18.8145C246.082 19.4462 245.847 20.3938 245.847 21.6573ZM257.883 16.0927L257.954 17.3528C258.76 16.3784 259.819 15.8911 261.129 15.8911C263.401 15.8911 264.556 17.1915 264.597 19.7923V27H262.147V19.9335C262.147 19.2413 261.996 18.7305 261.694 18.4012C261.398 18.0652 260.911 17.8972 260.232 17.8972C259.244 17.8972 258.508 18.3441 258.024 19.2379V27H255.575V16.0927H257.883Z" fill="white"/>
</svg>
